<?xml version="1.0" standalone="no"?>
<!DOCTYPE svg PUBLIC "-//W3C//DTD SVG 20010904//EN"
 "http://www.w3.org/TR/2001/REC-SVG-20010904/DTD/svg10.dtd">
<svg version="1.0" xmlns="http://www.w3.org/2000/svg"
 width="115.000000pt" height="115.000000pt" viewBox="0 0 115.000000 115.000000"
 preserveAspectRatio="xMidYMid meet">
<metadata>
Created by potrace 1.14, written by Peter Selinger 2001-2017
</metadata>
<g transform="translate(0.000000,115.000000) scale(0.100000,-0.100000)"
fill="#000000" stroke="none">
<path d="M30 575 l0 -575 545 0 545 0 0 575 0 575 -545 0 -545 0 0 -575z m283
275 c3 -11 12 -20 21 -20 22 0 20 -17 -4 -30 -11 -6 -20 -17 -20 -25 0 -8 -4
-15 -10 -15 -5 0 -10 7 -10 15 0 8 -12 21 -27 29 -28 15 -28 16 -6 22 12 3 25
15 28 25 8 25 21 24 28 -1z m474 -26 c21 -21 25 -32 20 -64 -4 -29 2 -52 24
-95 41 -83 41 -168 -2 -253 -16 -34 -45 -73 -62 -88 -18 -15 -31 -32 -29 -37
1 -5 -4 -20 -13 -33 -16 -24 -68 -34 -79 -15 -3 4 -41 10 -84 13 -127 7 -207
61 -260 176 -46 101 -18 244 62 321 61 58 111 76 216 76 54 1 104 6 115 13 32
19 64 14 92 -14z m93 -58 c0 -3 -4 -8 -10 -11 -5 -3 -10 -1 -10 4 0 6 5 11 10
11 6 0 10 -2 10 -4z m-50 -476 c0 -5 -2 -10 -4 -10 -3 0 -8 5 -11 10 -3 6 -1
10 4 10 6 0 11 -4 11 -10z m-500 -40 c0 -5 -4 -10 -10 -10 -5 0 -10 5 -10 10
0 6 5 10 10 10 6 0 10 -4 10 -10z"/>
<path d="M410 760 c-10 -7 7 -10 57 -10 39 0 75 5 78 10 8 13 -115 13 -135 0z"/>
<path d="M595 760 c3 -5 19 -10 36 -10 16 0 29 5 29 10 0 6 -16 10 -36 10 -21
0 -33 -4 -29 -10z"/>
<path d="M485 700 c-3 -5 0 -13 8 -16 23 -9 122 0 122 11 0 14 -122 19 -130 5z"/>
<path d="M310 630 c0 -6 42 -10 105 -10 63 0 105 4 105 10 0 6 -42 10 -105 10
-63 0 -105 -4 -105 -10z"/>
<path d="M575 630 c4 -6 59 -10 131 -10 81 0 123 4 119 10 -4 6 -59 10 -131
10 -81 0 -123 -4 -119 -10z"/>
<path d="M300 575 c0 -13 11 -15 57 -13 81 4 85 28 4 28 -48 0 -61 -3 -61 -15z"/>
<path d="M495 580 c-3 -5 0 -13 8 -16 23 -9 122 0 122 11 0 14 -122 19 -130 5z"/>
<path d="M300 510 c0 -5 11 -10 25 -10 14 0 25 5 25 10 0 6 -11 10 -25 10 -14
0 -25 -4 -25 -10z"/>
<path d="M410 510 c0 -6 45 -10 115 -10 70 0 115 4 115 10 0 6 -45 10 -115 10
-70 0 -115 -4 -115 -10z"/>
<path d="M700 510 c0 -6 30 -10 70 -10 40 0 70 4 70 10 0 6 -30 10 -70 10 -40
0 -70 -4 -70 -10z"/>
<path d="M475 450 c-3 -5 0 -13 7 -15 25 -10 238 -1 238 10 0 14 -236 19 -245
5z"/>
<path d="M350 380 c0 -6 34 -10 81 -10 51 0 78 4 74 10 -3 6 -40 10 -81 10
-43 0 -74 -4 -74 -10z"/>
<path d="M550 380 c0 -6 47 -10 120 -10 73 0 120 4 120 10 0 6 -47 10 -120 10
-73 0 -120 -4 -120 -10z"/>
<path d="M400 331 c0 -15 29 -21 111 -21 64 0 79 3 79 15 0 12 -17 15 -95 15
-52 0 -95 -4 -95 -9z"/>
</g>
</svg>
